# xmcd
#
# Track frame offsets:
# 150
# 2590
# 12546
# 16312
# 41416
# 45840
# 62805
# 68450
# 89369
# 108873
# 119516
# 121572
# 138638
# 155646
# 158809
# 172587
# 182615
# 184524
# 200357
# 205304
# 222137
# 242802
# 249160
# 259278
# 276495
# 288291
# 292898
# 294731
# 312266
# 325387
#
# Disc length: 4758 seconds
#
#
# Revision: 0
# Processed by: cddbd v1.5.2PL0 Copyright (c) Steve Scherf et al.
# Submitted via: FreeRIP 2.96 
#
DISCID=a512941e
DTITLE=Couplet AG - 15 Jahre - Couplet AG - 15 Jahre
DYEAR=2008
DGENRE=Comedy
TTITLE0=Begrüßung
TTITLE1=Servus Beinad
TTITLE2=Gewohnheiten
TTITLE3=Wallfahrt 2008
TTITLE4=Im Landtag
TTITLE5=Ich möcht sein wie Hadertauer
TTITLE6=Frauengespräche
TTITLE7=Dutzi dutzi
TTITLE8=Hauptsache Gesund
TTITLE9=Dr. Kudernak und die Hormaone
TTITLE10=Opa
TTITLE11=Pharma Nova
TTITLE12=Gnadenhof
TTITLE13=Dekollté
TTITLE14=Mein Vilstal Sakozy
TTITLE15=Neulich eine Metzersfrau
TTITLE16=One Hit Wonder
TTITLE17=Manta Willi
TTITLE18=Dr. Kudernak und die Rente
TTITLE19=Riesterrente
TTITLE20=Papsthaar
TTITLE21=Willkommen im Circus Krone
TTITLE22=Erinnerungen an Zirkus Renz
TTITLE23=Wo samma
TTITLE24=Schnacklwalzer
TTITLE25=Wer samma
TTITLE26=125 Zentimeter Brustumfang
TTITLE27=Kathi von Obergiarsing
TTITLE28=Concerto Grosso
TTITLE29=Isarmärchen
EXTD=
EXTT0=
EXTT1=
EXTT2=
EXTT3=
EXTT4=
EXTT5=
EXTT6=
EXTT7=
EXTT8=
EXTT9=
EXTT10=
EXTT11=
EXTT12=
EXTT13=
EXTT14=
EXTT15=
EXTT16=
EXTT17=
EXTT18=
EXTT19=
EXTT20=
EXTT21=
EXTT22=
EXTT23=
EXTT24=
EXTT25=
EXTT26=
EXTT27=
EXTT28=
EXTT29=
PLAYORDER=
